<svg xmlns="http://www.w3.org/2000/svg" shape-rendering="crispEdges" viewBox="0 -0.5 32 32"><path stroke="#fff190" d="M8 2h5m3 0h1m-2 1h1M9 4h1m4 0h1M9 5h1m3 0h1M9 6h1M9 7h1"/><path stroke="#fad553" d="M9 3h1"/><path stroke="#ffd567" d="M10 3h3m3 0h2m-8 1h3m2 0h4m-9 1h3m1 0h6M10 6h4m1 0h5m-9 1h1m5 0h2m1 0h2M9 8h1m9 0h1m1 0h1M9 9h1m1 0h1m6 0h1M9 10h1m-1 1h1m9 0h1M9 12h1m9 0h1M9 13h1"/><path stroke="#022140" d="M13 3h1m-1 1h1m0 2h1m-2 1h1m-1 1h1m-1 1h1m9 0h1m-11 1h1m9 0h1m-11 1h1m9 0h1m-11 1h1m9 0h1m-11 1h1m9 0h1m-11 1h1m9 0h1m-11 1h1m9 0h1m-11 1h1m9 0h1m-11 1h1m9 0h1m-11 1h1m9 0h1m-11 1h1m9 0h1m-11 1h1m9 0h1m-11 1h1m9 0h1m-11 1h1m9 0h1m-11 1h1m9 0h1m-11 1h1m9 0h1m-10 1h1m8 0h1M8 26h7m8 0h1m-2 1h1m-2 1h1m-2 1h1m-2 1h1"/><path stroke="#feb662" d="M20 6h1M10 7h1m1 0h1m3 0h1m2 0h1M10 8h3m4 0h2m1 0h1m1 0h1M10 9h1m1 0h1m6 0h4m-13 1h3m6 0h4m-12 1h2m7 0h1m1 0h1m-1 1h1m-4 1h1m2 0h1M9 14h2m8 0h1m2 0h1M9 15h1m9 1h1m-1 1h1"/><path stroke="#fe8b5e" d="M10 11h1m10 0h1m-12 1h3m7 0h2m-12 1h3m7 0h2m-11 1h2m7 0h2m-12 1h3m6 0h1m1 0h2M9 16h1m-1 1h2m-2 1h1m9 0h1m-1 1h1m-1 1h1"/><path stroke="#ff6e59" d="M20 15h1m-11 1h3m7 0h3m-12 1h2m7 0h3m-13 1h3m8 0h2M9 19h1m2 0h1m7 0h1M9 20h1m10 0h1m1 0h1M9 21h1m9 0h1M9 22h1"/><path stroke="#e65856" d="M20 18h1m-11 1h2m9 0h2m-13 1h3m8 0h1m-12 1h3m7 0h3m-13 1h1m1 0h1m6 0h1m1 0h2M9 23h2m1 0h1m6 0h1M9 24h2m8 0h1m-1 1h1m-1 1h1m-1 1h1m-1 1h1m-1 1h1"/><path stroke="#b94a51" d="M11 22h1m8 0h1m-10 1h1m8 0h3m-12 1h2m7 0h3M8 25h6m6 0h3m-3 1h3m-3 1h2m-2 1h1"/></svg>
